mtllib materials.mtl
v 0.1746544 0.04240632 0.08080554
v 0.1266176 0.04289365 0.144776
v 0.1378119 0.04309058 0.1531806
v 0.1858487 0.04260325 0.08921015
v -0.122248 0.03718448 -0.1421049
v -0.1231125 0.1510785 -0.1436216
v -0.1408132 0.1507671 -0.156911
v -0.1399487 0.0368731 -0.1553943
v -0.1702848 0.0376718 -0.0781343
v 0.1722258 0.3623686 0.07654452
v 0.124189 0.3628559 0.1405151
v 0.1093512 0.3623595 0.1283255
v 0.155468 0.3618386 0.06291342
v -0.1798877 0.03776932 -0.06534612
v 0.1170146 0.04299116 0.1575642
v -0.1535437 0.3579605 -0.06880391
v -0.166743 0.3580949 -0.05120432
v 0.09615192 0.362494 0.145925
v -0.1727133 0.3576341 -0.08239532
v -0.1246765 0.3571467 -0.1463659
v -0.1041408 0.3574972 -0.1317487
v -0.1151841 0.3572979 -0.1404145
v -0.1645871 0.3577611 -0.07746971
v 0.1638674 0.361753 0.05171371
v -0.09574148 0.3574116 -0.1429484
v 0.1207387 0.3625529 0.1363523
v 0.1668555 0.3620319 0.07094026
v 0.1091996 0.3823576 0.1280588
v 0.09475797 0.4523401 0.1177325
v 0.1410802 0.4518225 0.05247474
v 0.1553164 0.3818364 0.06264687
v -0.0235222 0.4902601 0.02862465
v -0.0772296 0.4893155 -0.01169813
v -0.02864821 0.488838 -0.0752598
v 0.02423769 0.489768 -0.03555381
v -0.1120036 0.4787037 -0.03772986
v -0.06301147 0.4782333 -0.100983
v -0.1411952 0.44819 -0.05941796
v -0.09199767 0.4477229 -0.122517
v 0.03018528 0.491205 0.06894755
v 0.07712361 0.4906983 0.004152298
v 0.04599464 0.4910343 0.04712379
v 0.06511107 0.4818192 0.09524548
v 0.08088276 0.4859591 0.03731871
v 0.11022 0.4816911 0.0290736
v 0.1116387 0.4813051 0.03014183
v -0.1536953 0.3779583 -0.06907046
v -0.1042924 0.3774951 -0.1320152
v 0.1866669 0.04228449 0.06480849
v -0.1102355 0.03706264 -0.1581019
v 0.09155503 0.4699638 0.01514721
v 0.1046279 0.4511814 0.02510691
v 0.1737971 0.1553588 0.07930136
v 0.1849914 0.1555557 0.08770597
v 0.1858487 0.04260325 0.08921015
v -0.1111 0.1509566 -0.1596186
v 0.1858096 0.155237 0.06330431
v -0.1399487 0.0368731 -0.1553943
v -0.1408132 0.1507671 -0.156911
v 0.166515 0.3820333 0.07104385
v 0.1666666 0.3620355 0.0713104
v -0.09589307 0.3774095 -0.1432149
v 0.1637158 0.3817508 0.05144715
v -0.1153393 0.3573003 -0.1401457
v -0.1154909 0.3772981 -0.1404122
v -0.1648938 0.3777614 -0.07746756
v -0.1647422 0.3577635 -0.07720101
v 0.09600034 0.3824921 0.1456584
v -0.1668946 0.3780928 -0.05147088
v 0.1205497 0.3625565 0.1367224
v 0.1203981 0.3825545 0.1364558
v -0.10694 0.3572147 -0.1513454
v -0.1070916 0.3772125 -0.1516119
v -0.1153358 0.3772957 -0.140681
v -0.1647387 0.377759 -0.07773626
v -0.178093 0.3778958 -0.05986798
v -0.1779414 0.357898 -0.05960143
v 0.1073504 0.3626909 0.154322
v 0.1071989 0.382689 0.1540554
v 0.1205871 0.382551 0.1360856
v 0.1667039 0.3820298 0.0706737
v 0.1749144 0.3819478 0.05984414
v 0.1750659 0.3619499 0.06011069
v -0.1236991 0.2283704 -0.1446509
v -0.1374763 0.2394831 -0.1265609
v -0.1714351 0.1892297 -0.08015263
v -0.1711681 0.1540422 -0.07968402
v 0.1257763 0.1537292 0.1433001
v -0.06500897 0.1926467 -0.1003071
v -0.1239395 0.2600439 -0.1450727
v -0.109139 0.2431169 -0.1338297
v -0.1888688 0.1537309 -0.09297347
v -0.1879855 0.03736043 -0.09142375
v 0.1161734 0.1538267 0.1560882
v -0.180771 0.1541398 -0.06689584
v 0.137812 0.04309058 0.1531805
v 0.1369707 0.1539261 0.1517045
v -0.1279362 0.03675127 -0.1713914
v -0.1288007 0.1506453 -0.1729081
v -0.1888688 0.1537309 -0.09297347
v -0.1879855 0.03736043 -0.09142375
v -0.1984718 0.1538284 -0.08018529
v -0.1975885 0.03745794 -0.07863557
v 0.128209 0.0431881 0.1659687
v 0.1273677 0.1540236 0.1644927
v 0.1369706 0.1539261 0.1517047
v 0.1849914 0.1555557 0.08770597
v 0.197004 0.1554339 0.07170892
v 0.1978613 0.04248142 0.0732131
v -0.1239356 0.2595212 -0.1450658
v -0.1216776 0.2403877 -0.1280361
v 0.08493692 0.4749348 0.02634656
vn 0.007587367 -0.9998826 0.01331432
vn 0.6004605 -0.006091019 -0.7996312
vn 0.007588968 -0.9998826 0.01331553
vn -0.01636977 0.9996719 -0.01970414
vn 0.007585411 -0.9998825 0.01331995
vn 0.007043726 -0.9998918 0.01291972
vn -0.007589282 0.9998826 -0.01331576
vn 0.007594471 -0.9998825 0.01331946
vn 0.007035966 -0.9998918 0.01291607
vn 0.007590513 -0.9998825 0.01331587
vn 0.7925692 0.2442151 0.5587423
vn -0.007589374 0.9998826 -0.01331564
vn -0.1856405 0.9710864 -0.150096
vn -0.5059338 0.7648248 -0.3988409
vn -0.007590217 0.9998826 -0.01331563
vn 0.1749089 0.9775172 0.1177585
vn 0.5100207 0.782547 0.3570703
vn -0.7679638 0.2176947 -0.6023626
vn 0.007588981 -0.9998826 0.01331527
vn -0.6004598 0.006091625 0.7996318
vn 0.6004579 -0.006093911 -0.7996331
vn 0.6000893 0.004465392 -0.7999206
vn -0.6000925 -0.004465198 0.7999182
vn -0.08106667 -0.9881061 0.1306694
vn -0.6004633 0.006091 0.7996292
vn -0.005561665 0.999915 -0.01179178
vn -0.6004594 0.006091055 0.7996321
vn 0.6004601 -0.006091075 -0.7996316
vn -0.5999704 0.00611493 0.7999989
vn -0.00703502 0.9998918 -0.0129174
vn -0.5999682 0.006114969 0.8000005
vn 0.5999664 -0.006114813 -0.8000019
vn 0.599979 -0.006114872 -0.7999924
vn -0.007042319 0.9998918 -0.01292227
vn 0.5999711 -0.006117993 -0.7999983
vn -0.5999728 0.006117497 0.7999971
vn 0.007586902 -0.9998823 0.01333135
vn 0.5999697 -0.006114942 -0.7999994
vn -0.007587639 0.9998823 -0.01333214
vn -0.7999878 -0.01406045 -0.5998516
vn 0.6173849 -0.005804759 -0.7866399
vn -0.007596848 0.9998824 -0.01332159
vn -0.6173875 0.005804792 0.7866378
vn -0.7866156 -0.01419136 -0.6172799
vn -0.007589777 0.9998824 -0.01332929
vn -0.5999784 0.006114602 0.7999928
vn 0.007588834 -0.9998823 0.01333055
vn -0.7999829 -0.01406004 -0.5998581
vn 0.007587011 -0.9998824 0.01332766
vn -0.5999703 0.006120335 0.7999989
vn -0.007589415 0.9998823 -0.0133351
vn 0.7999821 0.01406271 0.5998591
vn -0.5761986 0.006528652 0.8172837
vn -0.007594164 0.9998825 -0.01331997
vn 0.5761989 -0.00652542 -0.8172835
vn 0.8172727 0.01387517 0.5760842
vn -0.007588786 0.9998823 -0.01333061
vn 0.5999689 -0.006115234 -0.8
vn 0.007590911 -0.9998823 0.01333133
vn 0.7999872 0.01405912 0.5998524
vn -0.7996187 -0.01406476 -0.6003433
vn 0.08095822 0.9881337 -0.1305283
vn 0.7996185 0.01406426 0.6003436
vn 0.60046 -0.006091344 -0.7996316
vn -0.60046 0.006091402 0.7996316
vn -0.6004601 0.006091602 0.7996315
vn 0.6004601 -0.006091571 -0.7996316
vn 0.6004583 -0.006091115 -0.7996329
vn 0.004335503 0.999981 -0.004369662
vn 0.6004553 -0.006090763 -0.7996351
vn -0.6004599 0.006090847 0.7996317
vn 0.007591571 -0.9998826 0.01331425
vn 0.6004588 -0.006090885 -0.7996325
vn -0.007591017 0.9998825 -0.01331569
vn -0.7996191 -0.0140637 -0.6003429
vn 0.01099405 0.9992152 -0.03805476
vn -0.6004597 0.006091041 0.7996318
vn 0.00758907 -0.9998826 0.0133159
vn -0.799619 -0.01406422 -0.600343
vn -0.007587399 0.9998825 -0.01332163
vn -0.6004584 0.006091065 0.7996328
vn 0.007585546 -0.9998825 0.01332228
vn -0.7996177 -0.01406428 -0.6003447
vn 0.007587509 -0.9998825 0.01331967
vn -0.6004557 0.006090689 0.7996349
vn -0.0075883 0.9998825 -0.01332238
vn 0.7996177 0.01406376 0.6003447
vn -0.6004617 0.006090634 0.7996303
vn -0.02347444 0.9996938 0.00784125
vn 0.6004632 -0.006091002 -0.7996293
vn 0.7996184 0.0140637 0.6003438
vn -0.007592616 0.9998825 -0.01331664
vn 0.6004616 -0.006091293 -0.7996305
vn 0.007588418 -0.9998826 0.01331624
vn 0.7996186 0.01406354 0.6003435
vn -0.1697793 -0.6565319 -0.7349428
vn 0.6004605 -0.006091256 -0.7996312
vn -0.7996189 -0.01406396 -0.6003431
vn -0.1001857 0.8119423 -0.5750762
vn -0.03137904 -0.6665799 -0.7447729
vn -0.3997658 0.7651174 -0.5047601
vn 0.6004601 -0.006091848 -0.7996315
vn 0.6004532 -0.006088446 -0.7996367
vn 0.762563 0.6230544 0.1740714
vn 0.1757855 0.9771239 0.1197016
vn 0.9206372 0.3873325 -0.04899813
vn -0.1041968 0.6820786 -0.7238175
vn -0.1766578 0.8566869 -0.4846437
vt 0.1405722 0.001357861
vt 0.1450284 -0.005286093
vt 0.1461911 -0.004506279
vt 0.1417349 0.002137675
vt -0.1832968 0.2587837
vt -0.1920214 0.2661069
vt -0.1934446 0.2644113
vt -0.1847199 0.2570882
vt 0.1405727 0.001358306
vt 0.1097361 -0.0193244
vt 0.1141923 -0.02596835
vt 0.1450289 -0.005285645
vt -0.1435762 0.004043126
vt -0.1480599 -0.00258234
vt -0.1464234 -0.003588281
vt -0.1417409 0.002902625
vt 0.1450299 -0.005286917
vt 0.1141933 -0.02596967
vt 0.1150841 -0.02729784
vt 0.1459207 -0.006615093
vt 0.1431993 -0.006452014
vt 0.1159137 -0.02476678
vt 0.1171398 -0.02659341
vt 0.1444253 -0.008278645
vt -0.1161078 -0.02460648
vt -0.1141924 -0.02596826
vt -0.1097362 -0.01932431
vt -0.1117934 -0.01786736
vt 0.1161096 -0.02460494
vt 0.1117952 -0.01786584
vt 0.1106129 -0.01862279
vt 0.1149273 -0.0253619
vt 0.1115991 -0.01802893
vt 0.1385433 5.693579E-05
vt 0.1377631 0.001219322
vt 0.1108188 -0.01686655
vt 0.1387331 0.0002259771
vt 0.1433887 -0.006284229
vt 0.1445221 -0.005473721
vt 0.1398664 0.001036484
vt 0.3165667 0.02983865
vt 0.3232968 0.03245257
vt 0.3203591 0.03989672
vt 0.3136342 0.03728565
vt -0.12979 -0.01550658
vt -0.1242119 -0.01924792
vt -0.1198122 -0.01256604
vt -0.125305 -0.008881913
vt -0.1862828 0.03633261
vt -0.1827586 0.03358032
vt -0.1779263 0.03995707
vt -0.181411 0.04267852
vt -0.2759906 0.1254835
vt -0.2724193 0.1223558
vt -0.2672329 0.1284486
vt -0.2707893 0.131563
vt -0.1353682 -0.01176493
vt -0.1297901 -0.01550628
vt -0.1253051 -0.008881617
vt -0.1307979 -0.005197498
vt -0.1338289 -0.009552944
vt -0.06608037 -0.06343155
vt -0.06212806 -0.06552298
vt -0.06082792 -0.06316245
vt -0.06147294 -0.05956041
vt -0.06201534 -0.05653147
vt -0.06217597 -0.05644646
vt 0.1155802 -0.1108861
vt 0.1202642 -0.1116581
vt 0.1217097 -0.1037876
vt 0.1170454 -0.1030185
vt -0.3423395 0.1345897
vt -0.3363952 0.1305295
vt -0.3318561 0.1371192
vt -0.3377957 0.1411756
vt 0.109736 -0.01932438
vt 0.1405727 0.001358322
vt 0.1394583 0.003019769
vt 0.1086216 -0.01766293
vt 0.2121115 0.2882272
vt 0.212044 0.292974
vt 0.2100079 0.2969551
vt 0.2056898 0.3020996
vt 0.2013716 0.3072442
vt 0.1978037 0.3099396
vt 0.1931405 0.3108289
vt -0.1932782 0.3106644
vt -0.1979249 0.3097948
vt -0.1987047 0.3071566
vt -0.1962091 0.3071727
vt -0.1904024 0.3060985
vt -0.1968734 0.3092873
vt -0.1997707 0.3057677
vt -0.2153986 0.2867827
vt -0.211044 0.2810581
vt 0.2112183 0.2809789
vt 0.2155567 0.2867233
vt 0.1968028 0.3095054
vt 0.1903155 0.3063364
vt 0.1694382 -0.03160303
vt 0.1676511 -0.03281773
vt 0.1415775 -0.05213754
vt 0.1395893 -0.05368736
vt 0.1594244 0.2872241
vt 0.1680769 0.2944868
vt 0.1671769 0.2955591
vt 0.1585243 0.2882964
vt -0.139903 0.0007709589
vt -0.1090459 -0.01988136
vt -0.1079332 -0.01821882
vt -0.1387903 0.002433507
vt 0.1920218 0.2661066
vt 0.1832971 0.2587834
vt 0.1847203 0.2570879
vt 0.193445 0.264411
vt -0.1832969 0.2587836
vt -0.1594254 0.2872235
vt -0.168078 0.2944861
vt -0.1920216 0.2661068
vt 0.1854697 0.3060108
vt 0.1870021 0.3072959
vt 0.1861026 0.3083685
vt 0.1845702 0.3070833
vt -0.1385425 5.578249E-05
vt -0.1115983 -0.0180301
vt -0.110818 -0.01686771
vt -0.1377622 0.001218171
vt 0.2078721 0.2824445
vt 0.2063397 0.2811594
vt 0.2072392 0.2800868
vt 0.2087716 0.2813719
vt -0.2063403 0.2811589
vt -0.1854711 0.3060098
vt -0.1870036 0.3072949
vt -0.2078728 0.2824441
vt -0.206449 0.2810276
vt -0.2079814 0.2823127
vt -0.2088809 0.2812401
vt -0.2073485 0.279955
vt -0.1159133 -0.02476816
vt -0.1431988 -0.006453363
vt -0.1444249 -0.008279992
vt -0.1171394 -0.02659479
vt -0.1868496 0.3074766
vt -0.1853172 0.3061914
vt -0.1844177 0.307264
vt -0.1859501 0.3085492
vt 0.1853167 0.3061917
vt 0.2064502 0.2810262
vt 0.2079827 0.2823114
vt 0.1868492 0.3074769
vt 0.1117983 -0.01786914
vt 0.1110177 -0.01670696
vt 0.1098557 -0.01748743
vt 0.1106362 -0.01864961
vt -0.2063392 0.2811598
vt -0.2078717 0.2824449
vt -0.2087712 0.2813723
vt -0.2072387 0.2800872
vt -0.1110181 -0.01670675
vt -0.1117986 -0.01786892
vt -0.1106366 -0.0186494
vt -0.109856 -0.01748722
vt -0.3347813 0.09999405
vt -0.3330387 0.09901255
vt -0.3323517 0.1002323
vt -0.3340943 0.1012139
vt -0.2005676 0.2857962
vt -0.2020786 0.2871065
vt -0.2029984 0.2860458
vt -0.2014873 0.2847356
vt -0.1117962 -0.01786514
vt -0.1161106 -0.02460424
vt -0.1149282 -0.0253612
vt -0.1106139 -0.0186221
vt 0.2020777 0.2871071
vt 0.2005666 0.2857967
vt 0.2014864 0.2847361
vt 0.2029974 0.2860464
vt -0.3366317 0.09157801
vt -0.3327478 0.09857405
vt -0.3344964 0.09954483
vt -0.3383803 0.09254879
vt -0.1161123 -0.02460711
vt -0.1173389 -0.02643341
vt -0.1161768 -0.02721387
vt -0.1149502 -0.02538757
vt 0.2079817 0.2823125
vt 0.2064492 0.2810274
vt 0.2073487 0.2799548
vt 0.2088812 0.2812399
vt 0.1173392 -0.02643382
vt 0.1161126 -0.02460752
vt 0.1149505 -0.02538798
vt 0.1161771 -0.02721428
vt -0.3369644 0.09204208
vt -0.338707 0.09302358
vt -0.3397866 0.09110674
vt -0.338044 0.09012525
vt 0.1433921 -0.006285994
vt 0.1446187 -0.008112302
vt 0.1457808 -0.007331835
vt 0.1445542 -0.005505528
vt 0.1853167 0.3061914
vt 0.1868492 0.3074766
vt 0.1859497 0.3085491
vt 0.1844172 0.307264
vt -0.1446214 -0.00811182
vt -0.1433948 -0.006285517
vt -0.1445569 -0.005505046
vt -0.1457835 -0.007331349
vt 0.3386876 0.09301221
vt 0.3369449 0.0920307
vt 0.3380245 0.09011386
vt 0.3397672 0.09109537
vt 0.1932456 0.3002804
vt 0.1948045 0.3015334
vt 0.1939316 0.3026195
vt 0.1923727 0.3013664
vt -0.1433904 -0.006283141
vt -0.1387348 0.0002270468
vt -0.1398682 0.001037557
vt -0.1445238 -0.005472631
vt -0.1948055 0.3015333
vt -0.1932466 0.3002802
vt -0.1923737 0.3013663
vt -0.1939326 0.3026193
vt 0.3338114 0.09900577
vt 0.3378 0.09206679
vt 0.339534 0.09306353
vt 0.3355454 0.1000025
vt -0.1387376 0.0002246584
vt -0.1379571 0.001386838
vt -0.1391191 0.002167312
vt -0.1398997 0.001005132
vt -0.1870025 0.3072956
vt -0.1854701 0.3060104
vt -0.1845706 0.307083
vt -0.186103 0.3083682
vt 0.1379575 0.001387506
vt 0.1387381 0.0002253301
vt 0.1399001 0.001005802
vt 0.1391196 0.002167981
vt 0.3330194 0.09900209
vt 0.3347621 0.09998359
vt 0.334075 0.1012034
vt 0.3323324 0.1002219
vt -0.3151038 0.08883186
vt -0.3218397 0.09262408
vt -0.3239149 0.09117521
vt -0.3223108 0.0837086
vt -0.3192442 0.08198218
vt -0.1442579 -0.06001081
vt -0.1461088 -0.05856273
vt -0.1725141 -0.03900024
vt -0.1741082 -0.03792846
vt 0.3187618 0.08171072
vt 0.3369872 0.0919712
vt 0.3330626 0.09894238
vt 0.3150217 0.08878576
vt -0.1920215 0.2661068
vt -0.1680779 0.2944861
vt -0.1839356 0.3077965
vt -0.1904307 0.2743086
vt 0.1839356 0.3077965
vt 0.1679157 0.29435
vt 0.1922112 0.266266
vt 0.1839354 0.3077965
vt 0.1922111 0.266266
vt 0.1949066 0.2685286
vt 0.2078069 0.2793567
vt -0.2078069 0.2793566
vt -0.2003685 0.2731131
vt -0.1978726 0.2734133
vt -0.1904306 0.2743086
vt -0.1839355 0.3077965
vt -0.1832974 0.2587831
vt -0.1922118 0.2662655
vt -0.193635 0.26457
vt -0.1847206 0.2570876
vt -0.1100744 -0.02926455
vt -0.1410352 -0.00876065
vt -0.1419182 -0.01009403
vt -0.1109574 -0.03059792
vt -0.1679175 0.2943488
vt -0.1594271 0.2872223
vt -0.1585271 0.2882946
vt -0.1670175 0.2954212
vt 0.1594255 0.2872234
vt 0.183297 0.2587835
vt 0.1922114 0.2662659
vt 0.1679159 0.2943499
vt 0.109736 -0.01932353
vt 0.1086216 -0.01766208
vt 0.1067832 -0.01889515
vt 0.1078976 -0.0205566
vt -0.1832973 0.2587833
vt -0.192022 0.2661064
vt -0.1934452 0.2644109
vt -0.1847205 0.2570877
vt -0.108622 -0.01766231
vt -0.1097364 -0.01932376
vt -0.1078979 -0.02055682
vt -0.1067836 -0.01889538
vt -0.3151038 0.0888321
vt -0.3051779 0.08324406
vt -0.3041965 0.08498733
vt -0.3141224 0.09057537
vt -0.1154265 -0.02650295
vt -0.1199404 -0.03311247
vt -0.1181124 -0.0343609
vt -0.1135984 -0.02775138
vt 0.1922114 0.2662659
vt 0.183297 0.2587835
vt 0.1847202 0.2570879
vt 0.1936346 0.2645704
vt 0.1141924 -0.02596833
vt 0.1097362 -0.01932438
vt 0.1078978 -0.02055744
vt 0.112354 -0.02720139
vt -0.3051779 0.08324395
vt -0.3151038 0.08883198
vt -0.3192442 0.0819823
vt -0.3091025 0.07627277
vt -0.114194 -0.02596918
vt -0.1150849 -0.02729736
vt -0.1132465 -0.02853043
vt -0.1123556 -0.02720226
vt 0.1922118 0.2662656
vt 0.1832974 0.2587832
vt 0.1847206 0.2570876
vt 0.193635 0.26457
vt 0.1150848 -0.02729791
vt 0.114194 -0.02596974
vt 0.1123556 -0.02720281
vt 0.1132464 -0.02853099
vt -0.3091025 0.0762727
vt -0.3192442 0.08198224
vt -0.3200288 0.08058865
vt -0.3098871 0.07487912
vt 0.14503 -0.005286249
vt 0.1459208 -0.006614425
vt 0.1470835 -0.005834601
vt 0.1461927 -0.004506422
vt 0.159427 0.2872224
vt 0.1679175 0.2943489
vt 0.1670174 0.2954212
vt 0.158527 0.2882947
vt -0.1459218 -0.006614317
vt -0.1450309 -0.005286142
vt -0.1461936 -0.004506314
vt -0.1470844 -0.005834491
vt 0.3187618 0.08171086
vt 0.3091025 0.07627289
vt 0.309887 0.0748793
vt 0.3195464 0.08031727
vt 0.159425 0.2872238
vt 0.1679154 0.2943503
vt 0.1670154 0.2954226
vt 0.158525 0.2882961
vt -0.1403377 0.0007886662
vt -0.1359243 0.007464489
vt -0.1370921 0.008236543
vt -0.1415056 0.001560721
vt -0.168077 0.2944868
vt -0.1594244 0.2872241
vt -0.1585244 0.2882964
vt -0.1671769 0.2955591
vt 0.3051779 0.08324403
vt 0.3091025 0.07627286
vt 0.3187619 0.08171083
vt 0.3150217 0.08878587
vt -0.1405734 0.001359439
vt -0.1394591 0.003020887
vt -0.1406217 0.003800704
vt -0.1417361 0.002139256
vt -0.1680774 0.2944865
vt -0.1594249 0.2872238
vt -0.1585248 0.2882961
vt -0.1671773 0.2955588
vt 0.1394585 0.003019561
vt 0.1405729 0.001358115
vt 0.1417355 0.00213793
vt 0.1406212 0.003799379
vt 0.3051779 0.08324409
vt 0.3150217 0.08878593
vt 0.3140403 0.09052921
vt 0.3041965 0.08498736
vt -0.1681953 0.06349126
vt -0.1681586 0.06347556
vt -0.1658698 0.06230404
vt -0.1656903 0.06370008
vt -0.1979422 0.2710766
vt -0.1920214 0.2661069
vt -0.1904306 0.2743087
vt -0.1978726 0.2734134
vt -0.3245546 0.09415261
vt -0.3246001 0.09417824
vt -0.3330626 0.09894246
vt -0.3369873 0.09197128
vt -0.3223108 0.08370877
vt -0.3239149 0.09117537
vt -0.2755377 0.03539014
vt -0.2775886 0.03558856
vt -0.277653 0.03400054
vt -0.1445609 0.09586277
vt -0.1468633 0.09700774
vt -0.145245 0.0944282
vt -0.272449 0.09508045
vt -0.2703965 0.0949001
vt -0.2721426 0.09645464
vt -0.2014598 0.3071392
vt -0.2057119 0.3020733
vt -0.209964 0.2970074
vt -0.211967 0.2930656
vt -0.212018 0.2883385
vt -0.196209 0.307173
vt -0.1987047 0.307157
vt -0.1979284 0.3097929
vt -0.1980737 0.3096837
vt -0.1987082 0.3071547
vt 0.1955453 -0.1733859
vt 0.198038 -0.1720414
vt 0.1952829 -0.1720183
vt -0.05994863 -0.06323903
vt -0.05739492 -0.05858765
vt -0.06059853 -0.05963786
vt 0.3337309 -0.051657
vt 0.3325467 -0.0542297
vt 0.3339454 -0.05502152
vt -0.3324766 0.08970598
vt -0.3328669 0.09230807
vt -0.3340673 0.08947472
vt -0.2851 0.06504498
vt -0.2843792 0.06251445
vt -0.2832015 0.06325773
o group2015087421
g mesh2015087421
usemtl mat22
f 4/4/1 3/3/1 2/2/1 1/1/1
f 8/8/2 7/7/2 6/6/2 5/5/2
f 2/12/3 9/11/3 5/10/3 1/9/3
f 13/16/4 12/15/4 11/14/4 10/13/4
f 15/20/5 14/19/5 9/18/5 2/17/5
f 18/24/6 17/23/6 16/22/6 12/21/6
f 21/28/7 20/27/7 19/26/7 16/25/7
f 23/32/8 22/31/8 21/30/8 16/29/8
f 25/36/9 24/35/9 13/34/9 21/33/9
f 27/40/10 26/39/10 12/38/10 13/37/10
f 31/44/11 30/43/11 29/42/11 28/41/11
f 35/48/12 34/47/12 33/46/12 32/45/12
f 34/52/13 37/51/13 36/50/13 33/49/13
f 37/56/14 39/55/14 38/54/14 36/53/14
f 42/61/15 41/60/15 35/59/15 32/58/15 40/57/15
f 46/67/16 45/66/16 44/65/16 42/64/16 40/63/16 43/62/16
f 30/71/17 46/70/17 43/69/17 29/68/17
f 39/75/18 48/74/18 47/73/18 38/72/18
f 50/79/19 49/78/19 1/77/19 5/76/19
f 29/86/20 43/85/20 40/84/20 32/83/20 33/82/20 36/81/20 38/80/20
f 52/90/21 51/89/21 46/88/21 30/87/21
f 48/95/22 39/94/22 52/93/22 30/92/22 31/91/22
f 28/99/23 29/98/23 38/97/23 47/96/23
f 20/103/24 21/102/24 13/101/24 10/100/24
f 55/107/25 54/106/25 53/105/25 1/104/25
f 57/111/26 56/110/26 6/109/26 53/108/26
f 59/115/27 58/114/27 5/113/27 6/112/27
f 56/119/28 57/118/28 49/117/28 50/116/28
f 61/123/29 60/122/29 31/121/29 13/120/29
f 63/127/30 62/126/30 48/125/30 31/124/30
f 65/131/31 64/130/31 21/129/31 48/128/31
f 62/135/32 63/134/32 24/133/32 25/132/32
f 67/139/33 66/138/33 47/137/33 16/136/33
f 69/143/34 68/142/34 28/141/34 47/140/34
f 71/147/35 70/146/35 12/145/35 28/144/35
f 68/151/36 69/150/36 17/149/36 18/148/36
f 64/155/37 72/154/37 25/153/37 21/152/37
f 72/159/38 73/158/38 62/157/38 25/156/38
f 73/163/39 65/162/39 48/161/39 62/160/39
f 73/167/40 72/166/40 64/165/40 65/164/40
f 22/171/41 74/170/41 48/169/41 21/168/41
f 74/175/42 75/174/42 47/173/42 48/172/42
f 75/179/43 23/178/43 16/177/43 47/176/43
f 75/183/44 74/182/44 22/181/44 23/180/44
f 66/187/45 76/186/45 69/185/45 47/184/45
f 76/191/46 77/190/46 17/189/46 69/188/46
f 77/195/47 67/194/47 16/193/47 17/192/47
f 77/199/48 76/198/48 66/197/48 67/196/48
f 70/203/49 78/202/49 18/201/49 12/200/49
f 78/207/50 79/206/50 68/205/50 18/204/50
f 79/211/51 71/210/51 28/209/51 68/208/51
f 79/215/52 78/214/52 70/213/52 71/212/52
f 26/219/53 80/218/53 28/217/53 12/216/53
f 80/223/54 81/222/54 31/221/54 28/220/54
f 81/227/55 27/226/55 13/225/55 31/224/55
f 81/231/56 80/230/56 26/229/56 27/228/56
f 60/235/57 82/234/57 63/233/57 31/232/57
f 82/239/58 83/238/58 24/237/58 63/236/58
f 83/243/59 61/242/59 13/241/59 24/240/59
f 83/247/60 82/246/60 60/245/60 61/244/60
f 87/252/61 86/251/61 85/250/61 84/249/61 6/248/61
f 11/256/62 12/255/62 16/254/62 19/253/62
f 53/260/63 10/259/63 11/258/63 88/257/63
f 89/264/64 10/263/64 53/262/64 6/261/64
f 87/267/65 88/266/65 11/265/65
f 19/271/66 86/270/66 87/269/66 11/268/66
f 10/276/67 89/275/67 91/274/67 90/273/67 20/272/67
f 93/280/68 92/279/68 87/278/68 9/277/68
f 95/284/69 94/283/69 88/282/69 87/281/69
f 97/288/70 96/287/70 2/286/70 88/285/70
f 94/292/71 95/291/71 14/290/71 15/289/71
f 58/296/72 98/295/72 50/294/72 5/293/72
f 98/300/73 99/299/73 56/298/73 50/297/73
f 99/304/74 59/303/74 6/302/74 56/301/74
f 99/308/75 98/307/75 58/306/75 59/305/75
f 7/312/76 100/311/76 87/310/76 6/309/76
f 100/316/77 101/315/77 9/314/77 87/313/77
f 101/320/78 8/319/78 5/318/78 9/317/78
f 101/324/79 100/323/79 7/322/79 8/321/79
f 92/328/80 102/327/80 95/326/80 87/325/80
f 102/332/81 103/331/81 14/330/81 95/329/81
f 103/336/82 93/335/82 9/334/82 14/333/82
f 103/340/83 102/339/83 92/338/83 93/337/83
f 96/344/84 104/343/84 15/342/84 2/341/84
f 104/348/85 105/347/85 94/346/85 15/345/85
f 105/352/86 97/351/86 88/350/86 94/349/86
f 105/356/87 104/355/87 96/354/87 97/353/87
f 3/360/88 106/359/88 88/358/88 2/357/88
f 106/364/89 107/363/89 53/362/89 88/361/89
f 107/368/90 4/367/90 1/366/90 53/365/90
f 107/372/91 106/371/91 3/370/91 4/369/91
f 54/376/92 108/375/92 57/374/92 53/373/92
f 108/380/93 109/379/93 49/378/93 57/377/93
f 109/384/94 55/383/94 1/382/94 49/381/94
f 109/388/95 108/387/95 54/386/95 55/385/95
f 91/392/96 111/391/96 110/390/96 90/389/96
f 91/396/97 89/395/97 6/394/97 84/393/97
f 85/402/98 86/401/98 19/400/98 20/399/98 90/398/98 110/397/98
f 85/405/99 111/404/99 84/403/99
f 85/408/100 110/407/100 111/406/100
f 91/411/101 84/410/101 111/409/101
f 51/418/102 52/417/102 39/416/102 37/415/102 34/414/102 35/413/102 41/412/102
f 51/421/103 45/420/103 46/419/103
f 51/424/104 41/423/104 112/422/104
f 44/427/105 41/426/105 42/425/105
f 44/430/106 112/429/106 41/428/106
f 44/433/107 45/432/107 112/431/107
f 51/436/108 112/435/108 45/434/108
